HIERARCHY
ROOT root
{
	OFFSET	0	13.1	24.9
	CHANNELS 6  Xposition Yposition Zposition Xrotation Yrotation Zrotation
	JOINT spine_1
	{
		OFFSET	0	9.99999	0
		CHANNELS 3  Xrotation Yrotation Zrotation
		JOINT spine_2
		{
			OFFSET	0	112	-10
			CHANNELS 3  Xrotation Yrotation Zrotation
			JOINT spine_3
			{
				OFFSET	0	206.5	19.3
				CHANNELS 3  Xrotation Yrotation Zrotation
				JOINT spine_4
				{
					OFFSET	0	110.4	14.6
					CHANNELS 3  Xrotation Yrotation Zrotation
					JOINT neck_1
					{
						OFFSET	0	71.8	-50.3
						CHANNELS 3  Xrotation Yrotation Zrotation
						JOINT neck_2
						{
							OFFSET	0	86.2	-25.8
							CHANNELS 3  Xrotation Yrotation Zrotation
							JOINT head_ee
							{
								OFFSET	0	179.8	-8.7
								CHANNELS 3  Xrotation Yrotation Zrotation
								End Site
								{
									OFFSET	1	0	0
								}
							}
						}
					}
					JOINT left_clavicle
					{
						OFFSET	-43.2	22.4	-70.8
						CHANNELS 3  Xrotation Yrotation Zrotation
						JOINT left_shoulder
						{
							OFFSET	-93.9	-5.79999	48.7
							CHANNELS 3  Xrotation Yrotation Zrotation
							JOINT left_elbow
							{
								OFFSET	-291.4	-30.8	15.2
								CHANNELS 3  Xrotation Yrotation Zrotation
								JOINT left_lowarm_twist
								{
									OFFSET	-110.7	-3.89999	13.6
									CHANNELS 3  Xrotation Yrotation Zrotation
									JOINT left_hand
									{
										OFFSET	-110.7	-3.89999	13.6
										CHANNELS 3  Xrotation Yrotation Zrotation
										JOINT left_ee
										{
											OFFSET	-80.8	-5.10001	12.1
											CHANNELS 3  Xrotation Yrotation Zrotation
											End Site
											{
												OFFSET	1	0	0
											}
										}
									}
								}
							}
						}
					}
					JOINT right_clavicle
					{
						OFFSET	43.2	22.4	-70.8
						CHANNELS 3  Xrotation Yrotation Zrotation
						JOINT right_shoulder
						{
							OFFSET	93.9	-5.79999	48.7
							CHANNELS 3  Xrotation Yrotation Zrotation
							JOINT right_elbow
							{
								OFFSET	291.4	-30.8	15.2
								CHANNELS 3  Xrotation Yrotation Zrotation
								JOINT right_lowarm_twist
								{
									OFFSET	110.7	-3.89999	13.6
									CHANNELS 3  Xrotation Yrotation Zrotation
									JOINT right_hand
									{
										OFFSET	110.7	-3.89999	13.6
										CHANNELS 3  Xrotation Yrotation Zrotation
										JOINT right_ee
										{
											OFFSET	80.8	-5.10001	12.1
											CHANNELS 3  Xrotation Yrotation Zrotation
											End Site
											{
												OFFSET	1	0	0
											}
										}
									}
								}
							}
						}
					}
				}
			}
		}
	}
	JOINT left_hip
	{
		OFFSET	-82.8	-127.5	0.300001
		CHANNELS 3  Xrotation Yrotation Zrotation
		JOINT left_knee
		{
			OFFSET	-28.2	-396.7	2.2
			CHANNELS 3  Xrotation Yrotation Zrotation
			JOINT left_ankle
			{
				OFFSET	-11.7	-411.3	35.4
				CHANNELS 3  Xrotation Yrotation Zrotation
				JOINT left_toes
				{
					OFFSET	0	-60	-88.6
					CHANNELS 3  Xrotation Yrotation Zrotation
					JOINT left_foot_ee
					{
						OFFSET	-22.5	-16.5	-42.2
						CHANNELS 3  Xrotation Yrotation Zrotation
						End Site
						{
							OFFSET	1	0	0
						}
					}
				}
			}
		}
	}
	JOINT right_hip
	{
		OFFSET	82.8	-127.5	0.300001
		CHANNELS 3  Xrotation Yrotation Zrotation
		JOINT right_knee
		{
			OFFSET	28.2	-396.7	2.2
			CHANNELS 3  Xrotation Yrotation Zrotation
			JOINT right_ankle
			{
				OFFSET	11.7	-411.3	35.4
				CHANNELS 3  Xrotation Yrotation Zrotation
				JOINT right_toes
				{
					OFFSET	0	-60	-88.6
					CHANNELS 3  Xrotation Yrotation Zrotation
					JOINT right_foot_ee
					{
						OFFSET	22.5	-16.5	-42.2
						CHANNELS 3  Xrotation Yrotation Zrotation
						End Site
						{
							OFFSET	1	0	0
						}
					}
				}
			}
		}
	}
}
MOTION
Frames: 13
Frame Time: 0.02
463.643 752.51 -498.899 84.9911 -80.4942 95.9026 -6.18815 -0.441457 -3.52732 -6.18125 -0.216254 -3.54823 -6.1535 0.908926 -3.43679 -6.1698 0.355101 -3.53705 -4.77022 1.85555 5.69605 -4.67757 -0.899419 6.13415 -0.0 0.0 -0.0 7.72585 3.30585 14.9722 0.736104 -30.1017 65.4199 0.642591 -17.6574 0.0998092 -63.5302 -5.72476 5.19745 0.825638 21.1767 13.4723 -0.0 0.0 -0.0 3.46191 5.61286 -6.31191 9.23415 20.7327 -58.807 1.63246 38.9585 -0.577454 34.4573 0.0927837 4.33509 1.7324 7.81067 -8.41019 0.0 0.0 0.0 -16.5166 -20.5371 -13.3109 3.71551 -0.17074 -0.544422 15.7797 30.1281 -2.37741 -7.83697 0.0 0.0 -0.0 0.0 -0.0 5.84279 21.2736 -19.7713 -17.5654 -0.316674 -2.66643 20.8691 -27.8376 3.03478 -17.8936 0.0 0.0 0.0 0.0 0.0 
471.164 753.54 -499.161 80.6737 -80.4411 91.3515 -6.32321 -0.408737 -3.41207 -6.31675 -0.190921 -3.43113 -6.29176 0.904184 -3.31548 -6.30691 0.369541 -3.41653 -4.17242 0.904024 5.96948 -4.06349 -2.9086 6.28522 -0.0 0.0 -0.0 7.21988 3.047 13.997 -0.122194 -30.1429 65.6293 0.658172 -18.0581 0.104587 -62.9983 -5.65782 5.1847 0.693575 18.746 11.8323 -0.0 0.0 -0.0 3.52567 4.46387 -6.5189 8.84716 21.3159 -58.7877 1.70813 40.2331 -0.625687 34.6273 0.0996934 4.3557 1.60187 7.23224 -7.76751 0.0 0.0 0.0 -17.0248 -20.014 -13.3182 3.60763 -0.165286 -0.528774 17.3691 29.4754 -2.58962 -7.90642 0.0 0.0 -0.0 0.0 -0.0 3.93616 17.1013 -18.4378 -16.6092 -0.320599 -2.51977 21.998 -27.8689 3.18452 -21.3835 0.0 0.0 0.0 0.0 0.0 
475.156 752.367 -495.106 79.1924 -80.4517 89.5348 -6.27486 -0.381563 -3.30535 -6.2688 -0.170581 -3.3229 -6.24632 0.886668 -3.20708 -6.26049 0.369334 -3.30673 -3.20504 0.6125 5.47641 -3.10975 -3.1437 5.77993 -0.0 0.0 -0.0 7.13661 1.79579 13.8519 -1.47837 -30.2064 64.5018 0.6648 -18.2279 0.106651 -61.8673 -5.51586 5.15551 0.606592 15.2512 10.0338 -0.0 0.0 -0.0 3.63104 4.44979 -6.73114 8.25956 21.6586 -58.5978 1.75752 41.0399 -0.657852 35.464 0.13459 4.4568 1.48764 8.90909 -6.27263 0.0 0.0 0.0 -17.8247 -20.3784 -13.522 3.60823 -0.165316 -0.528861 20.1539 25.2466 -2.89302 -7.5619 0.0 0.0 -0.0 0.0 -0.0 3.63235 15.0964 -18.1886 -17.9893 -0.314152 -2.73142 25.8547 -27.1273 3.6611 -22.1156 0.0 0.0 0.0 0.0 0.0 
477.545 747.215 -499.549 79.6297 -80.5404 89.9477 -6.22128 -0.382169 -3.30018 -6.21524 -0.171514 -3.31779 -6.19283 0.881171 -3.20335 -6.20697 0.364495 -3.30218 -2.80008 0.559796 5.21157 -2.71275 -3.06441 5.51699 -0.0 0.0 -0.0 6.87254 1.33442 13.3382 -1.51766 -30.3363 64.485 0.728951 -19.8547 0.127583 -61.5646 -5.47796 5.14722 0.514322 14.33 9.10973 -0.0 0.0 -0.0 3.06028 4.95625 -5.55006 7.22663 22.199 -58.3335 1.78178 41.4291 -0.673842 35.7736 0.147877 4.49408 1.51138 8.00284 -6.82271 0.0 0.0 0.0 -18.013 -20.3783 -13.1332 4.44127 -0.208203 -0.649441 20.5197 26.2104 -2.95773 -7.35082 0.0 0.0 -0.0 0.0 -0.0 3.31683 15.4083 -17.5677 -17.6922 -0.31597 -2.68588 26.4541 -26.5372 3.72128 -22.7372 0.0 0.0 0.0 0.0 0.0 
478.96 746.649 -498.42 72.2031 -80.4925 81.9568 -6.18214 -0.379415 -3.32072 -6.17602 -0.16746 -3.33811 -6.15372 0.88923 -3.22197 -6.16802 0.369517 -3.32184 -2.61029 0.480681 4.91408 -2.53186 -2.98823 5.20424 -0.0 0.0 -0.0 6.43475 1.03101 12.4813 -1.05202 -30.6938 64.4469 0.82466 -22.2205 0.161948 -61.1078 -5.42083 5.13433 0.397465 13.0238 7.8742 -0.0 0.0 -0.0 2.69853 5.87245 -4.75007 5.85108 22.9949 -57.9764 1.80383 41.7789 -0.688481 36.2383 0.168201 4.54991 1.52642 6.62576 -7.51152 0.0 0.0 0.0 -18.2072 -20.5417 -12.9066 5.64162 -0.273081 -0.822085 20.5073 27.8567 -2.98699 -7.1453 0.0 0.0 -0.0 0.0 -0.0 2.89175 15.4693 -16.6396 -17.6699 -0.316097 -2.68245 26.6278 -25.7493 3.72438 -23.6845 0.0 0.0 0.0 0.0 0.0 
486.793 746.617 -495.758 67.1766 -80.1626 76.5026 -6.07016 -0.55088 -3.38529 -6.06384 -0.334478 -3.41344 -6.03027 0.746877 -3.34756 -6.04584 0.209145 -3.42339 -2.63173 1.10666 5.88649 -2.52481 -2.61761 6.30766 -0.0 0.0 -0.0 5.96216 0.667476 11.5541 0.0928858 -30.9581 65.489 0.824362 -22.2132 0.161835 -60.4991 -5.34488 5.11645 0.437819 11.2819 7.46037 -0.0 0.0 -0.0 2.45517 5.93769 -4.25302 3.00708 21.3722 -57.9149 1.83118 42.2075 -0.706783 37.5123 0.226236 4.70212 1.68495 7.87257 -8.06009 0.0 0.0 0.0 -17.7135 -18.1366 -11.8681 7.21409 -0.363535 -1.04617 20.0526 29.3205 -2.95561 -5.96913 0.0 0.0 -0.0 0.0 -0.0 2.02715 15.8136 -16.6781 -16.8419 -0.319869 -2.55546 27.5468 -26.9706 3.86541 -24.2292 0.0 0.0 0.0 0.0 0.0 
490.727 746.229 -493.972 59.2307 -79.798 68.0836 -6.03227 -0.370202 -3.28336 -6.02629 -0.160639 -3.30023 -6.00501 0.875527 -3.18615 -6.01899 0.361632 -3.28431 -2.42645 0.436671 4.81213 -2.35057 -3.00051 5.10037 -0.0 0.0 -0.0 5.80573 0.147588 11.2394 0.483159 -31.8197 64.231 1.03998 -27.2558 0.252141 -60.346 -5.32582 5.11182 0.18783 10.2698 5.45756 -0.0 0.0 -0.0 1.8635 6.58614 -2.99796 1.81567 23.9354 -58.602 1.68975 39.9277 -0.61385 37.5928 0.230014 4.71168 1.43666 2.46144 -8.63999 0.0 0.0 0.0 -18.5006 -20.9815 -11.9817 7.54281 -0.383222 -1.0927 21.0661 30.8254 -3.12685 -7.70897 0.0 0.0 -0.0 0.0 -0.0 1.93343 14.3679 -15.9322 -17.5031 -0.317005 -2.65687 28.7611 -24.4276 3.94975 -25.6239 0.0 0.0 0.0 0.0 0.0 
495.805 745.794 -494.474 54.6294 -79.5702 62.5236 -5.9269 -0.306819 -3.39896 -5.92048 -0.0900408 -3.41158 -5.90276 0.971631 -3.27169 -5.91743 0.443049 -3.38392 -3.56776 0.431363 4.44277 -3.50513 -2.64461 4.66245 -0.0 0.0 -0.0 5.5 0.0364316 10.6383 1.35248 -32.0801 64.6836 1.19898 -30.7067 0.329216 -59.9862 -5.28103 5.10075 0.182452 8.89993 4.87469 -0.0 0.0 -0.0 1.52161 7.69482 -2.19599 -0.00296361 24.4062 -58.5068 1.63581 39.0159 -0.579559 38.2191 0.259889 4.78599 1.32767 0.565147 -8.67529 0.0 0.0 0.0 -18.8489 -21.4797 -11.0065 9.50836 -0.506499 -1.36856 23.6877 31.2014 -3.48776 -8.62233 0.0 0.0 -0.0 0.0 -0.0 1.47977 14.3872 -15.1694 -17.7153 -0.315837 -2.68941 29.6279 -24.1454 4.04423 -26.5664 0.0 0.0 0.0 0.0 0.0 
500.327 743.793 -490.597 50.6158 -79.1493 58.0205 -5.74475 -0.423283 -3.41261 -5.7383 -0.205403 -3.4326 -5.71326 0.857275 -3.33028 -5.7286 0.320885 -3.42375 -4.60384 1.25783 6.40549 -4.48145 -2.55118 6.76923 -0.0 0.0 -0.0 5.21312 -0.137412 10.0725 2.4697 -32.1489 64.2881 1.37898 -34.3354 0.426034 -59.3691 -5.20439 5.0811 0.169816 6.9899 4.02053 -0.0 0.0 -0.0 1.3261 8.63558 -1.70151 -2.72961 25.4197 -58.6784 1.54196 37.3716 -0.521528 39.0286 0.299706 4.88155 1.18831 -1.51256 -8.57189 0.0 0.0 0.0 -19.1448 -22.0015 -11.2438 8.62734 -0.450068 -1.24542 29.1431 30.3102 -4.15527 -9.62919 0.0 0.0 -0.0 0.0 -0.0 1.13027 13.4758 -14.2799 -18.2831 -0.312121 -2.77645 30.2676 -24.5996 4.12847 -27.5562 0.0 0.0 0.0 0.0 0.0 
506.402 745.284 -488.608 47.3042 -78.7744 54.2166 -5.67298 -0.493486 -3.35547 -5.66676 -0.279094 -3.38004 -5.63775 0.766511 -3.30387 -5.6529 0.23542 -3.38336 -5.5275 1.80496 8.36295 -5.32253 -2.91121 8.81455 -0.0 0.0 -0.0 4.9914 0.246143 9.6519 3.08998 -32.123 63.8859 1.56737 -37.8241 0.537029 -58.7361 -5.126 5.0601 0.280016 4.55851 3.75256 -0.0 0.0 -0.0 1.36663 9.06306 -1.74157 -4.60221 26.1296 -59.3431 1.4324 35.3562 -0.456554 40.3125 0.365616 5.03193 0.955655 -3.51821 -7.8128 0.0 0.0 0.0 -18.7703 -22.9902 -10.9344 6.39073 -0.315403 -0.92914 29.9198 29.5176 -4.22396 -12.9518 0.0 0.0 -0.0 0.0 -0.0 0.47249 12.2441 -14.0098 -18.0223 -0.313935 -2.73648 31.3772 -25.3636 4.27408 -28.7946 0.0 0.0 0.0 0.0 0.0 
510.665 745.804 -486.093 45.0297 -78.7075 51.6863 -5.43143 -0.58413 -3.42239 -5.42499 -0.365304 -3.45257 -5.38997 0.691746 -3.40229 -5.40609 0.146074 -3.46875 -5.43515 2.24886 8.96417 -5.20183 -2.55859 9.50975 -0.0 0.0 -0.0 5.17305 0.581181 10.0153 3.68524 -31.1092 64.1547 1.65519 -39.3462 0.591802 -58.8993 -5.14619 5.0656 0.0439257 4.427 2.14283 -0.0 0.0 -0.0 1.67187 9.56154 -2.32146 -5.97594 25.698 -59.2037 1.37076 34.176 -0.421404 40.2277 0.361159 5.02204 0.886062 -3.61253 -7.38637 0.0 0.0 0.0 -16.6261 -21.7145 -9.69003 2.8986 -0.130171 -0.42567 27.9429 29.5172 -3.98348 -12.9999 0.0 0.0 -0.0 0.0 -0.0 -0.409932 11.0311 -13.9932 -18.0088 -0.314024 -2.73441 32.9774 -25.2624 4.45031 -28.8895 0.0 0.0 0.0 0.0 0.0 
516.893 746.889 -482.224 37.403 -77.5619 43.6041 -5.29532 -0.973812 -3.36473 -5.28934 -0.757861 -3.41979 -5.23027 0.297097 -3.49005 -5.24717 -0.257474 -3.4932 -5.21918 2.29978 8.52906 -5.00874 -2.16952 9.08615 -0.0 0.0 -0.0 5.68601 -0.25571 10.9962 3.53529 -31.3677 62.6479 1.74363 -40.8151 0.648756 -59.1554 -5.17791 5.07411 -0.0783072 4.42644 1.33779 -0.0 0.0 -0.0 2.07377 10.1369 -3.09766 -7.23603 25.3882 -59.8519 1.26016 31.973 -0.361039 40.304 0.365168 5.03094 0.899249 -3.76285 -7.53407 0.0 0.0 0.0 -15.4393 -24.9601 -9.984 -0.0942112 0.00386798 0.0139402 29.8327 28.7278 -4.18912 -11.6404 0.0 0.0 -0.0 0.0 -0.0 -1.17387 10.1602 -14.0304 -15.4557 -0.322075 -2.34281 30.58 -26.1883 4.20462 -29.2424 0.0 0.0 0.0 0.0 0.0 
520.297 745.986 -483.374 41.8853 -78.2222 47.8941 -5.48074 -0.964256 -3.26654 -5.47512 -0.754562 -3.3212 -5.41795 0.281933 -3.39407 -5.43394 -0.257316 -3.39602 -5.1964 2.28056 9.10903 -4.95495 -2.64607 9.67715 -0.0 0.0 -0.0 5.93141 1.1451 11.5009 3.91866 -29.8512 62.5921 1.8845 -43.0265 0.742884 -59.5022 -5.22091 5.08541 -0.256428 4.11694 0.0348164 -0.0 0.0 -0.0 2.5073 11.178 -3.90277 -7.99292 24.1287 -59.3508 1.11226 28.853 -0.286135 40.0217 0.350392 4.998 0.907036 -3.68617 -7.55544 0.0 0.0 0.0 -12.0345 -25.6008 -8.64901 -8.52442 0.255996 1.28199 29.3171 27.5563 -4.09379 -9.88381 0.0 0.0 -0.0 0.0 -0.0 -3.14206 11.1341 -13.4876 -12.4588 -0.309261 -1.88322 30.8086 -26.1631 4.23029 -29.9185 0.0 0.0 0.0 0.0 0.0 
